<?xml version="1.0" encoding="UTF-8"?>
<svg id="Camada_1" xmlns="http://www.w3.org/2000/svg" version="1.1" viewBox="112.42 416.47 855.17 306.57">
  <!-- Generator: Adobe Illustrator 29.8.4, SVG Export Plug-In . SVG Version: 2.1.1 Build 6)  -->
  <defs>
    <style>
      .st0 {
        fill: #fff;
      }
    </style>
  </defs>
  <g id="_x35_">
    <g id="v2">
      <path class="st0" d="M932.37,507.45c-4.87,1.19-9.48,1.31-10.94,1.31-1.67,0-25.49.17-38.91-21.26-1.51-2.42.23-5.55,3.08-5.55h.08c1.24,0,2.4.64,3.07,1.69,11.51,18.02,30.98,17.83,32.68,17.83,1.23,0,2.45-.06,3.65-.17,20.15-1.88,35.2-18.65,35.2-38.68,0-4.8-.87-9.4-2.46-13.64-.16-.43-.33-.86-.51-1.28-4.15-9.98-12.35-17.85-22.54-21.57-1.43-.52-2.39-1.88-2.39-3.41v-.04c0-2.51,2.49-4.28,4.85-3.42,18.33,6.65,30.37,24.2,30.36,43.37,0,21.44-14.76,39.86-35.22,44.84Z"/>
      <path class="st0" d="M925.07,420.1v.03c0,2.01-1.63,3.64-3.63,3.63-24.72-.08-42.93,22.85-38.12,46.51.46,2.26-1.25,4.38-3.55,4.38h-.03c-1.73,0-3.22-1.23-3.56-2.93-5.77-28.42,16.13-55.3,45.25-55.25,2.01,0,3.64,1.62,3.64,3.63Z"/>
      <path class="st0" d="M942.35,469.77c-4.76,2.92-9.62,4.15-13.34,4.63-2.16.27-3.93-1.29-3.93-3.47v-35.45c0-2.29,2.17-3.96,4.39-3.38.99.26,1.96.57,2.91.92,6.36,2.35,11.75,6.69,15.42,12.27,5.42,8.23,2.96,19.33-5.44,24.49Z"/>
      <path class="st0" d="M949.49,471c.84-.94,2.36-.06,1.98,1.13-2.29,7.08-7.76,15.89-19.1,20.09-6.81,2.52-12.52,1.98-14.59,1.74-16.33-1.88-23.49-14.39-25.52-19.3-7.37-17.84,2.99-37.85,21.14-42.56,2.22-.58,4.39,1.09,4.39,3.38v39.49c0,3.86,3.13,6.99,6.99,6.99h.3c2.51,0,4.95-.28,7.3-.82,8.32-1.89,13.84-6.46,17.13-10.13Z"/>
    </g>
    <g>
      <path class="st0" d="M112.59,670.58l-.17-177.93,27.74-.03.15,155.19,87.72-.09.02,22.74-115.46.11Z"/>
      <path class="st0" d="M241.25,633.97c-.02-19.24,11.71-34.5,43.7-37.28l24.99-2.02c15.24-1.51,19.74-5.02,19.73-13.26-.01-14.74-8.52-23.48-27.26-23.47-17.49.02-26.98,7.53-28.21,23.52l-25.99.03c-.03-25.99,15.95-42.5,53.94-42.54,37.73-.04,54,16.44,54.02,42.43l.05,55.98c.02,17.49,1.53,28.74,4.03,32.98l-23.74.02c-4-4.99-5.51-10.24-5.52-22.24-6.98,16.5-21.22,24.76-43.46,24.78-29.99.03-46.25-14.95-46.27-38.94ZM329.69,615.64v-11c-2.76,3.5-9.75,5.51-19.75,6.27l-16.49,1.51c-18.49,1.52-25.73,9.27-25.72,19.77.01,13.25,8.02,22.48,27.01,22.47,22.74-.02,34.97-17.78,34.95-39.02Z"/>
      <path class="st0" d="M406.43,646.55l.02,23.74-25.24.02-.17-177.93,26.49-.03.07,70.97c7.23-16,21.22-24.51,41.96-24.53,34.74-.03,56.5,24.68,56.54,66.92.04,42.23-21.68,67-56.41,67.03-22.24.02-36.25-9.71-43.26-26.2ZM479.61,605.75c-.03-32.24-14.79-46.72-36.03-46.7-21.49.02-35.97,14.53-35.94,46.77.03,32.49,14.54,46.72,36.03,46.7,21.24-.02,35.97-14.28,35.94-46.77Z"/>
      <path class="st0" d="M567.08,668.1l-.16-163.66c-.01-13.8,11.16-25,24.96-25.01l121.24-.12c1.38,0,2.51,1.12,2.51,2.5l.04,37.41c0,1.38-1.12,2.51-2.5,2.51l-91.64.09c-1.38,0-2.5,1.12-2.5,2.51l.03,26.4c0,1.38,1.12,2.5,2.51,2.5l83.05-.08c1.38,0,2.51,1.12,2.51,2.5l.03,34.72c0,1.38-1.12,2.51-2.5,2.51l-83.05.08c-1.38,0-2.5,1.12-2.5,2.51l.03,30.16c0,1.38,1.12,2.5,2.51,2.5l91.64-.09c1.38,0,2.51,1.12,2.51,2.5l.04,37.41c0,1.38-1.12,2.51-2.5,2.51l-143.72.14c-1.38,0-2.51-1.12-2.51-2.5Z"/>
      <path class="st0" d="M782.4,655.63l.07,67.39-24.41.02c-13.8.01-25-11.16-25.01-24.96l-.16-163.66c0-1.38,1.12-2.5,2.5-2.5l41.71-.04c1.38,0,2.5,1.12,2.5,2.5l.02,16.29c7.24-11.82,17.7-21.49,39.18-21.52,37.32-.04,61.77,26.52,61.82,71.89.04,45.37-24.36,71.97-61.68,72.01-17.99.02-29-6.95-36.53-17.41ZM831.2,601.09c-.02-24.16-9.7-34.89-24.46-34.88-14.77.01-24.42,10.76-24.4,34.93.02,24.16,9.7,34.89,24.46,34.88,14.77-.01,24.42-10.76,24.4-34.93Z"/>
      <path class="st0" d="M896.76,645.3l-.11-111.05c0-1.37,1.11-2.49,2.48-2.49l44.42-.04c1.37,0,2.49,1.11,2.49,2.48l.13,133.56c0,1.37-1.11,2.49-2.48,2.49l-21.92.02c-13.8.01-25-11.16-25.01-24.96Z"/>
    </g>
  </g>
</svg>