<svg width="785" height="152" viewBox="0 0 785 152" fill="none" xmlns="http://www.w3.org/2000/svg">
<path d="M143.761 0H20.2386C9.06111 0 0 9.07489 0 20.2693V131.731C0 142.925 9.06111 152 20.2386 152H143.761C154.939 152 164 142.925 164 131.731V20.2693C164 9.07489 154.939 0 143.761 0Z" fill="white"/>
<path d="M123.941 90.8601V91.0001C123.941 91.6601 123.901 92.3101 123.841 92.9601C123.801 93.3101 123.761 93.6501 123.711 93.9901C123.571 94.8701 123.381 95.7401 123.131 96.5801C123.121 96.6401 123.101 96.7001 123.081 96.7601C123.011 96.9801 122.941 97.2101 122.871 97.4201C122.571 98.2701 122.211 99.1201 121.791 99.9501C121.551 100.43 121.291 100.9 121.011 101.37C120.671 101.93 120.331 102.46 119.951 102.98C119.451 103.67 118.921 104.31 118.371 104.92C118.001 105.33 117.621 105.7 117.211 106.07C116.971 106.29 116.711 106.51 116.461 106.72C116.221 106.92 115.971 107.12 115.721 107.31C115.331 107.6 114.931 107.88 114.511 108.14C114.311 108.27 114.091 108.39 113.881 108.53C113.861 108.54 113.831 108.56 113.811 108.57C113.651 108.67 113.481 108.76 113.311 108.85C112.891 109.06 112.481 109.28 112.051 109.47C111.841 109.57 111.611 109.66 111.391 109.76C111.181 109.84 110.951 109.93 110.731 110.01C110.511 110.1 110.281 110.18 110.051 110.26C110.051 110.26 110.044 110.263 110.031 110.27C109.981 110.29 109.931 110.31 109.881 110.32C109.861 110.33 109.841 110.34 109.811 110.34C109.801 110.35 109.781 110.36 109.761 110.36C109.761 110.36 109.754 110.363 109.741 110.37C109.671 110.39 109.601 110.41 109.531 110.43C109.521 110.44 109.501 110.44 109.481 110.44C109.481 110.44 109.474 110.443 109.461 110.45C109.461 110.45 109.401 110.47 109.371 110.48C109.131 110.55 108.881 110.63 108.631 110.69H108.611C108.611 110.69 108.561 110.71 108.531 110.72C108.491 110.73 108.461 110.74 108.421 110.75C108.411 110.75 108.391 110.76 108.381 110.76C108.271 110.79 108.161 110.81 108.041 110.84C108.011 110.85 107.981 110.85 107.961 110.86C107.951 110.86 107.941 110.87 107.931 110.87C107.901 110.88 107.871 110.89 107.831 110.89C107.811 110.89 107.791 110.9 107.771 110.9C107.751 110.9 107.741 110.91 107.721 110.91H107.701C107.701 110.91 107.621 110.93 107.581 110.94C107.551 110.95 107.521 110.96 107.481 110.96C107.401 110.97 107.321 110.98 107.241 111C107.171 111.01 107.101 111.03 107.031 111.04C106.951 111.06 106.871 111.07 106.791 111.08H106.781C106.781 111.08 106.771 111.1 106.761 111.09C106.591 111.13 106.401 111.16 106.231 111.18C106.171 111.18 106.121 111.19 106.061 111.2C105.681 111.25 105.311 111.28 104.931 111.31H104.821C104.431 111.34 104.051 111.35 103.661 111.35H61.4406V99.9201H103.491C103.691 99.9201 103.891 99.9101 104.081 99.8901C104.491 99.8701 104.891 99.8101 105.281 99.7401C105.421 99.7201 105.561 99.6901 105.711 99.6401C105.891 99.5901 106.081 99.5401 106.251 99.4901C106.921 99.3001 107.551 99.0101 108.141 98.6501C108.281 98.5701 108.421 98.4801 108.561 98.3901C108.701 98.2901 108.831 98.1901 108.971 98.0901C109.031 98.0401 109.091 97.9901 109.141 97.9401C109.281 97.8301 109.421 97.7101 109.561 97.5801C109.901 97.2701 110.221 96.9301 110.511 96.5601C110.581 96.4701 110.651 96.3801 110.721 96.2901C110.731 96.2801 110.741 96.2701 110.751 96.2601C113.381 92.7701 113.001 88.2001 110.551 85.1301H110.541C109.981 84.4201 109.321 83.8001 108.561 83.2801C107.651 82.6601 106.591 82.1901 105.411 81.9401C104.741 81.7901 104.041 81.7201 103.351 81.7201C103.291 81.7201 92.5306 81.7101 85.0206 81.7101H81.7806C77.7206 81.7001 73.6506 81.7101 69.5806 81.7101C67.0006 81.7101 64.4006 81.7101 61.8106 81.6901H61.4506C61.1106 81.6901 60.7806 81.6801 60.4406 81.6801C60.1806 81.6801 59.9106 81.6701 59.6606 81.6501C59.4506 81.6401 59.2406 81.6301 59.0306 81.6101C55.9206 81.2801 53.0306 80.2801 50.4906 78.7501C50.2106 78.5801 49.9206 78.3901 49.6506 78.2001C49.3806 78.0201 49.1106 77.8201 48.8506 77.6301C46.7406 76.0601 44.9406 74.0701 43.5706 71.8201C43.2706 71.3201 42.9906 70.8101 42.7306 70.2901C42.6506 70.1401 42.5806 69.9901 42.5106 69.8301C42.4106 69.6101 42.3106 69.3901 42.2206 69.1601C42.0906 68.8601 41.9706 68.5401 41.8506 68.2301C41.6906 67.7901 41.5406 67.3501 41.4106 66.8901C40.8906 65.1201 40.6106 63.2501 40.6006 61.3101V61.0301C40.6006 60.8201 40.6106 60.6001 40.6206 60.4001C40.6406 60.1001 40.6606 59.7901 40.6806 59.4801C40.7106 59.1801 40.7406 58.8601 40.7806 58.5601V58.5401C40.7806 58.5401 40.7806 58.5301 40.7906 58.5201V58.4701C40.8206 58.3101 40.8406 58.1301 40.8706 57.9601C40.9106 57.7201 40.9406 57.4801 40.9906 57.2401C41.0406 56.9501 41.1006 56.6601 41.1706 56.3801C41.1906 56.2201 41.2306 56.0701 41.2806 55.9201C41.3106 55.7701 41.3506 55.6201 41.4006 55.4601C41.5306 55.0001 41.6706 54.5601 41.8406 54.1201C41.9506 53.8101 42.0706 53.4901 42.2106 53.1901C42.3006 52.9701 42.4006 52.7501 42.5006 52.5301C42.5706 52.3801 42.6406 52.2301 42.7106 52.0701C42.8806 51.7201 43.0706 51.3901 43.2506 51.0601C43.5206 50.5901 43.8106 50.1401 44.1006 49.6901H44.1106C44.2006 49.5601 44.2906 49.4301 44.3806 49.3001C44.3806 49.3001 44.4006 49.2701 44.4006 49.2601C44.4806 49.1401 44.5706 49.0401 44.6506 48.9201C44.7806 48.7401 44.9206 48.5501 45.0706 48.3701C45.2206 48.1901 45.3606 48.0001 45.5206 47.8301C45.8506 47.4501 46.1806 47.0801 46.5306 46.7301C46.7006 46.5601 46.8806 46.3801 47.0606 46.2101C47.1906 46.0801 47.3306 45.9501 47.4906 45.8101C48.7806 44.6501 50.2106 43.6701 51.7706 42.8801C51.9506 42.7901 52.1506 42.7001 52.3306 42.6101C52.5106 42.5201 52.7106 42.4401 52.9006 42.3601C53.0706 42.2801 53.2506 42.2101 53.4206 42.1401C53.6506 42.0501 53.8906 41.9601 54.1306 41.8801C54.1506 41.8701 54.1806 41.8601 54.2006 41.8501C54.4406 41.7601 54.7006 41.6801 54.9506 41.6001C55.0206 41.5701 55.1006 41.5401 55.1706 41.5201C55.3706 41.4601 55.5906 41.4101 55.7906 41.3501C55.7906 41.3501 55.7973 41.3468 55.8106 41.3401C56.0306 41.2901 56.2706 41.2401 56.4906 41.1901C56.6806 41.1501 56.8706 41.1001 57.0506 41.0601C57.2306 41.0201 57.4306 40.9801 57.6206 40.9501C58.2006 40.8501 58.7806 40.7701 59.3706 40.7201C59.7606 40.6901 60.1306 40.6701 60.5206 40.6601C60.7206 40.6401 60.9406 40.6401 61.1506 40.6401H103.131V52.0801H61.6206C61.4706 52.0701 61.3106 52.0701 61.1506 52.0701C60.9906 52.0701 60.8406 52.0701 60.6806 52.0801C59.6406 52.1301 58.6606 52.3501 57.7306 52.7401C57.5806 52.7901 57.4306 52.8601 57.2706 52.9301C57.1206 53.0001 56.9606 53.0801 56.8006 53.1601C56.5406 53.3001 56.2806 53.4601 56.0406 53.6301C55.8606 53.7501 55.6806 53.8801 55.5106 54.0201C55.2306 54.2401 54.9506 54.4901 54.7006 54.7401C54.6006 54.8401 54.5006 54.9501 54.4006 55.0501C54.2706 55.1801 54.1506 55.3201 54.0306 55.4701L54.0106 55.4901C53.9506 55.5701 53.8906 55.6501 53.8406 55.7301C53.5706 56.0801 53.3206 56.4501 53.1306 56.8401C53.0606 56.9701 53.0006 57.1001 52.9306 57.2401C52.8706 57.3701 52.8106 57.5001 52.7506 57.6501C52.7006 57.7801 52.6406 57.9201 52.5906 58.0601C52.5306 58.2001 52.4806 58.3401 52.4506 58.4901C52.3806 58.7101 52.3206 58.9401 52.2706 59.1701C52.2206 59.4101 52.1706 59.6601 52.1406 59.9101C52.1406 59.9301 52.1406 59.9401 52.1306 59.9601C52.1106 60.1501 52.0906 60.3501 52.0706 60.5501C52.0606 60.7401 52.0506 60.9401 52.0506 61.1401V61.2001C52.0206 61.9101 52.1006 62.6301 52.2806 63.3301C52.3006 63.4101 52.3206 63.5001 52.3506 63.5801C52.3606 63.6101 52.3706 63.6301 52.3706 63.6501C52.3906 63.7601 52.4206 63.8701 52.4606 63.9901C52.4906 64.0901 52.5206 64.1901 52.5706 64.2801C52.7106 64.7201 52.9106 65.1301 53.1406 65.5401C53.1706 65.6001 53.2006 65.6701 53.2406 65.7301C53.2606 65.7601 53.2806 65.7901 53.3006 65.8201C53.3206 65.8501 53.3406 65.8801 53.3606 65.9101C53.5706 66.2701 53.8106 66.5901 54.0506 66.9101C54.0506 66.9101 54.0539 66.9168 54.0606 66.9301C54.5406 67.5301 55.0606 68.0601 55.6206 68.5001H55.6306C55.7806 68.6201 55.9306 68.7301 56.1006 68.8501C57.0506 69.4901 58.1306 69.9301 59.3206 70.1301C59.4606 70.1601 59.6106 70.1801 59.7706 70.2101C59.9106 70.2301 60.0606 70.2501 60.2206 70.2601C60.3506 70.2801 60.4706 70.2901 60.6106 70.2901C60.7906 70.3001 60.9806 70.3101 61.1606 70.3101H87.7506C92.8806 70.3101 98.0106 70.3101 103.141 70.3201C103.251 70.3201 103.351 70.3301 103.471 70.3301C103.851 70.3301 104.211 70.3401 104.581 70.3601C104.811 70.3701 105.051 70.3901 105.271 70.4101C105.411 70.4201 105.551 70.4301 105.701 70.4501C106.001 70.4801 106.311 70.5201 106.601 70.5601C109.671 71.0301 112.501 72.1801 114.961 73.8301C115.161 73.9601 115.361 74.1001 115.551 74.2501C115.831 74.4501 116.111 74.6701 116.371 74.8901C116.741 75.1801 117.091 75.4901 117.441 75.8101C117.611 75.9601 117.791 76.1201 117.961 76.3101C118.111 76.4601 118.261 76.6101 118.411 76.7701C118.541 76.9001 118.661 77.0201 118.781 77.1601C118.971 77.3701 119.161 77.5901 119.341 77.8101C120.341 79.0101 121.201 80.3301 121.901 81.7401C122.231 82.4101 122.531 83.1001 122.781 83.8101C122.861 84.0101 122.931 84.2201 122.991 84.4301C123.031 84.5501 123.071 84.6601 123.101 84.7901C123.131 84.9101 123.171 85.0301 123.201 85.1601C123.221 85.2301 123.241 85.2901 123.251 85.3401C123.281 85.4401 123.301 85.5301 123.331 85.6301C123.331 85.6301 123.334 85.6368 123.341 85.6501C123.361 85.7101 123.371 85.7601 123.381 85.8201V85.8401C123.441 86.0701 123.491 86.3201 123.541 86.5501C123.631 87.0101 123.711 87.4601 123.781 87.9201C123.821 88.1701 123.851 88.4301 123.881 88.6801C123.921 89.0201 123.951 89.3501 123.971 89.6901C124.001 90.0901 124.011 90.4801 124.011 90.8801L123.941 90.8601Z" fill="black"/>
<path d="M108.511 90.8501C108.511 91.3101 108.461 91.7701 108.341 92.2301C108.281 92.4501 108.211 92.6801 108.131 92.8901C108.101 92.9901 108.061 93.0901 108.011 93.1901C107.971 93.2901 107.921 93.3801 107.871 93.4801C107.861 93.5001 107.851 93.5201 107.841 93.5401C107.821 93.5701 107.811 93.5901 107.791 93.6201C107.771 93.6501 107.761 93.6801 107.741 93.7001C107.671 93.8301 107.591 93.9501 107.511 94.0701C107.511 94.0701 107.511 94.0801 107.501 94.0801C107.461 94.1501 107.401 94.2201 107.351 94.2801C107.301 94.3501 107.241 94.4101 107.191 94.4801C107.171 94.5201 107.141 94.5501 107.111 94.5801C107.091 94.6101 107.071 94.6301 107.051 94.6501C106.981 94.7101 106.921 94.7801 106.851 94.8501C106.791 94.9201 106.721 94.9901 106.651 95.0401C106.501 95.1701 106.341 95.3001 106.171 95.4301C106.141 95.4601 106.111 95.4801 106.081 95.5001C105.911 95.6101 105.731 95.7101 105.551 95.8101H105.541C105.361 95.9101 105.161 96.0001 104.961 96.0801C104.951 96.0901 104.941 96.0901 104.931 96.1001C104.821 96.1501 104.711 96.1901 104.591 96.2201C104.401 96.2901 104.201 96.3401 104.011 96.3801C103.961 96.3901 103.901 96.4001 103.841 96.4101C103.701 96.4401 103.551 96.4601 103.391 96.4701C103.351 96.4801 103.311 96.4901 103.271 96.4801C103.171 96.5001 103.071 96.5001 102.971 96.5001H96.3106C92.8606 96.5101 88.4006 96.5101 83.6706 96.5101H61.4306V96.5301H56.0706V111.35H44.6406V85.1001H90.5406C92.6706 85.1001 94.6306 85.1001 96.3306 85.1101C100.431 85.1001 103.041 85.1101 103.101 85.1101C103.921 85.1601 104.721 85.3301 105.471 85.7301C107.391 86.7601 108.551 88.7301 108.551 90.8101L108.511 90.8501Z" fill="black"/>
<path d="M119.951 40.6101V66.8801H62.1808C61.9508 66.8801 61.7208 66.8801 61.5008 66.8601C60.6808 66.8101 59.8808 66.6401 59.1308 66.2401C58.7908 66.0601 58.4908 65.8401 58.2108 65.6201C58.0408 65.4801 57.8608 65.3401 57.7108 65.1801C57.5808 65.0501 57.4608 64.9201 57.3408 64.7701C57.2508 64.6601 57.1608 64.5501 57.0908 64.4201C56.9608 64.2501 56.8408 64.0501 56.7308 63.8501C56.6708 63.7501 56.6108 63.6301 56.5608 63.5101C56.5408 63.4701 56.5208 63.4301 56.5108 63.3901C56.4708 63.3101 56.4408 63.2201 56.4108 63.1301C56.3808 63.0901 56.3708 63.0401 56.3508 62.9901C56.3208 62.8901 56.2908 62.7901 56.2608 62.6801C56.2008 62.4901 56.1608 62.2901 56.1308 62.1001C56.1108 61.9801 56.0908 61.8601 56.0808 61.7301C56.0608 61.5401 56.0508 61.3401 56.0508 61.1501C56.0508 60.9601 56.0608 60.7601 56.0808 60.5801V60.5601C56.0908 60.4601 56.1008 60.3701 56.1208 60.2701C56.1308 60.2201 56.1308 60.1701 56.1508 60.1201C56.1708 60.0201 56.1908 59.9201 56.2108 59.8201C56.2208 59.7801 56.2208 59.7501 56.2408 59.7201C56.2708 59.6001 56.3108 59.4801 56.3508 59.3501C56.3508 59.3201 56.3508 59.3101 56.3708 59.2901C56.4108 59.1601 56.4608 59.0301 56.5208 58.8901C56.6308 58.6101 56.7808 58.3401 56.9608 58.0901C57.0408 57.9701 57.1208 57.8401 57.2108 57.7201C57.2908 57.6101 57.3808 57.5001 57.4708 57.3901C57.4808 57.3601 57.5008 57.3401 57.5308 57.3201C57.6208 57.2301 57.7108 57.1301 57.8008 57.0401C58.0108 56.8401 58.2508 56.6401 58.4908 56.4801C58.5808 56.4101 58.6808 56.3501 58.7808 56.3001C58.9508 56.1801 59.1408 56.0901 59.3308 56.0101C59.4408 55.9501 59.5608 55.9001 59.6908 55.8601C59.8308 55.8001 59.9708 55.7501 60.1208 55.7101C60.2608 55.6701 60.4108 55.6301 60.5708 55.6001C60.6408 55.5801 60.7108 55.5701 60.7908 55.5601C60.9108 55.5401 61.0208 55.5201 61.1508 55.5101C61.3408 55.4901 61.5408 55.4801 61.7308 55.4801H68.2108C71.6608 55.4701 76.1308 55.4701 80.8308 55.4701C88.8908 55.4601 97.6108 55.4601 103.071 55.4501H108.511V40.6201H119.951V40.6101Z" fill="black"/>
<path d="M232.11 55.0901C229.71 53.4301 226.5 52.6001 222.47 52.6001C218.76 52.6001 215.77 53.3401 213.5 54.8101C211.23 56.2801 210.1 58.3301 210.1 60.9501C210.1 62.8101 210.85 64.3901 212.35 65.7001C213.85 67.0101 216.04 68.0201 218.92 68.7201L231.96 71.3101C237.27 72.5901 241.55 74.9201 244.81 78.3101C248.07 81.7001 249.7 85.6601 249.7 90.2001C249.7 94.4201 248.52 98.1001 246.15 101.23C243.78 104.36 240.57 106.78 236.51 108.47C232.45 110.16 227.99 111.01 223.13 111.01C215.01 111.01 208.44 109.08 203.42 105.21C198.4 101.34 195.6 96.0201 195.03 89.2401H209.13C209.71 92.5001 211.19 94.9501 213.59 96.5801C215.99 98.2101 219.2 99.0301 223.23 99.0301C226.94 99.0301 229.93 98.3001 232.2 96.8201C234.47 95.3501 235.6 93.3001 235.6 90.6801C235.6 88.8301 234.85 87.2401 233.35 85.9301C231.85 84.6201 229.66 83.6101 226.78 82.9101L213.64 80.3201H213.74C208.43 79.0401 204.15 76.7101 200.89 73.3201C197.63 69.9301 196 65.9701 196 61.4301C196 57.2101 197.18 53.5301 199.55 50.4001C201.91 47.2701 205.13 44.8501 209.19 43.1601C213.25 41.4701 217.71 40.6201 222.57 40.6201C230.69 40.6201 237.26 42.5701 242.28 46.4701C247.3 50.3701 250.1 55.7101 250.67 62.4901H236.57C235.99 59.2301 234.51 56.7701 232.11 55.1001V55.0901Z" fill="white"/>
<path d="M333.48 64.5401C337.47 68.4701 339.47 74.2401 339.47 81.8501V111.58H325.37V82.7101C325.37 78.9401 324.46 76.0401 322.64 74.0301C320.82 72.0201 318.6 71.0101 315.97 71.0101C313.34 71.0101 310.92 72.0701 308.87 74.1801C306.82 76.2901 305.8 79.1701 305.8 82.8101V111.49H291.7V82.7201C291.7 75.6001 288.51 71.4301 282.12 70.2101C278.51 69.8901 275.44 70.9201 272.9 73.3201C270.66 75.4301 269.54 78.3101 269.54 81.9501V111.49H255.44V58.9301H269.54V66.1201C270.88 63.9501 272.78 62.1601 275.25 60.7501C277.71 59.3401 280.6 58.6401 283.93 58.6401C291.35 58.6401 296.94 60.9101 300.71 65.4501C302.76 63.2801 305.2 61.6001 308.05 60.4201C310.89 59.2401 313.92 58.6501 317.11 58.6501C324.01 58.6501 329.47 60.6201 333.46 64.5501L333.48 64.5401Z" fill="white"/>
<path d="M347.771 71.45C350.041 67.39 353.2 64.21 357.26 61.91C361.32 59.61 365.94 58.46 371.12 58.46C374.7 58.46 378.011 59.2 381.051 60.67C384.091 62.14 386.081 63.9 387.041 65.94V58.94H400.95V111.5H387.041V104.4C386.081 106.45 384.081 108.21 381.051 109.67C378.011 111.14 374.7 111.88 371.12 111.88C365.94 111.88 361.32 110.73 357.26 108.43C353.2 106.13 350.031 102.93 347.771 98.84C345.501 94.75 344.331 90.18 344.271 85.13C344.331 80.08 345.501 75.52 347.771 71.46V71.45ZM382.83 74.51C380.21 71.86 376.85 70.53 372.76 70.53C368.67 70.53 365.18 71.89 362.5 74.61C359.81 77.33 358.44 80.86 358.38 85.21C358.44 89.56 359.82 93.07 362.5 95.76C365.19 98.45 368.6 99.79 372.76 99.79C376.92 99.79 380.21 98.46 382.83 95.81C385.45 93.16 386.79 89.62 386.86 85.21C386.8 80.74 385.45 77.17 382.83 74.52V74.51Z" fill="white"/>
<path d="M431.16 70.25C429.24 70.25 427.42 70.71 425.69 71.64C423.96 72.57 422.56 73.93 421.47 75.72C420.38 77.51 419.84 79.62 419.84 82.05V111.59H405.74V58.94H419.84V66.23C421.18 64.06 423.07 62.27 425.5 60.86C427.93 59.45 430.81 58.75 434.13 58.75V70.64C433.3 70.39 432.31 70.26 431.16 70.26V70.25Z" fill="white"/>
<path d="M438.931 58.9301H447.661V41.3801H461.761V58.9301H475.861V70.9201H461.761V111.49H447.661V70.9201H438.931V58.9301Z" fill="white"/>
<path d="M543.391 55.0901C540.991 53.4301 537.78 52.6001 533.75 52.6001C530.04 52.6001 527.051 53.3401 524.781 54.8101C522.511 56.2801 521.38 58.3301 521.38 60.9501C521.38 62.8101 522.13 64.3901 523.63 65.7001C525.13 67.0101 527.32 68.0201 530.2 68.7201L543.24 71.3101C548.55 72.5901 552.83 74.9201 556.09 78.3101C559.35 81.7001 560.98 85.6601 560.98 90.2001C560.98 94.4201 559.801 98.1001 557.431 101.23C555.061 104.36 551.851 106.78 547.791 108.47C543.731 110.16 539.271 111.01 534.411 111.01C526.291 111.01 519.72 109.08 514.7 105.21C509.68 101.34 506.881 96.0201 506.311 89.2401H520.411C520.991 92.5001 522.47 94.9501 524.87 96.5801C527.27 98.2101 530.48 99.0301 534.51 99.0301C538.22 99.0301 541.21 98.3001 543.48 96.8201C545.75 95.3501 546.88 93.3001 546.88 90.6801C546.88 88.8301 546.13 87.2401 544.63 85.9301C543.13 84.6201 540.941 83.6101 538.061 82.9101L524.921 80.3201H525.021C519.711 79.0401 515.431 76.7101 512.171 73.3201C508.911 69.9301 507.281 65.9701 507.281 61.4301C507.281 57.2101 508.46 53.5301 510.83 50.4001C513.19 47.2701 516.41 44.8501 520.47 43.1601C524.53 41.4701 528.99 40.6201 533.85 40.6201C541.97 40.6201 548.541 42.5701 553.561 46.4701C558.581 50.3701 561.38 55.7101 561.95 62.4901H547.85C547.27 59.2301 545.791 56.7701 543.391 55.1001V55.0901Z" fill="white"/>
<path d="M580.46 108.85C576.18 106.58 572.82 103.4 570.39 99.3102C567.96 95.2201 566.75 90.5201 566.75 85.2101C566.75 79.9001 568.01 74.9202 570.54 70.8202C573.07 66.7302 576.5 63.6002 580.85 61.4202C585.2 59.2502 589.96 58.1602 595.14 58.1602C600.32 58.1602 605.15 59.2502 609.43 61.4202C613.71 63.5902 617.1 66.7302 619.6 70.8202C622.09 74.9102 623.34 79.7101 623.34 85.2101C623.34 90.7101 622.12 95.1402 619.7 99.2602C617.27 103.38 613.9 106.58 609.58 108.85C605.26 111.12 600.39 112.25 594.96 112.25C589.53 112.25 584.76 111.12 580.48 108.85H580.46ZM605.2 96.3301C607.88 93.7101 609.23 90.0002 609.23 85.2002C609.23 80.4002 607.87 76.5402 605.15 73.9802C602.43 71.4202 599.09 70.1402 595.13 70.1402C592.76 70.1402 590.49 70.6702 588.32 71.7202C586.15 72.7802 584.36 74.4401 582.95 76.7101C581.54 78.9801 580.84 81.8102 580.84 85.2002C580.84 90.0002 582.18 93.7001 584.87 96.3301C587.55 98.9501 590.91 100.26 594.94 100.26C598.97 100.26 602.52 98.9501 605.2 96.3301Z" fill="white"/>
<path d="M669.721 91.2502C669.051 93.2502 668.001 94.9401 666.581 96.3301C663.901 98.9601 660.471 100.26 656.321 100.26C652.171 100.26 648.931 98.9601 646.251 96.3301C643.561 93.7101 642.221 90.0001 642.221 85.2101C642.221 81.8301 642.921 78.9902 644.331 76.7302C645.731 74.4502 647.521 72.8001 649.701 71.7401C651.861 70.6801 654.141 70.1602 656.511 70.1602C660.471 70.1602 663.811 71.4402 666.531 74.0002C667.881 75.2602 668.911 76.8302 669.581 78.6902H684.061C683.451 75.8402 682.421 73.2101 680.971 70.8301C678.481 66.7401 675.091 63.6101 670.801 61.4301C666.521 59.2601 661.761 58.1702 656.521 58.1702C651.281 58.1702 646.571 59.2601 642.231 61.4301C637.881 63.6001 634.451 66.7301 631.921 70.8301C629.401 74.9201 628.131 79.7201 628.131 85.2101C628.131 90.7001 629.351 95.2201 631.781 99.3102C634.211 103.4 637.571 106.58 641.851 108.85C646.141 111.13 650.961 112.26 656.341 112.26C661.721 112.26 666.651 111.12 670.971 108.85C675.281 106.58 678.651 103.38 681.091 99.2602C682.541 96.7902 683.561 94.1202 684.141 91.2602H669.751L669.721 91.2502Z" fill="white"/>
<path d="M688.73 58.9301H702.83V111.58H688.73V58.9301Z" fill="white"/>
<path d="M701.148 45.8565L698.673 43.3816C697.076 41.7844 694.486 41.7843 692.889 43.3816L690.414 45.8564C688.817 47.4537 688.817 50.0434 690.414 51.6406L692.889 54.1155C694.486 55.7128 697.076 55.7127 698.673 54.1155L701.148 51.6406C702.745 50.0434 702.745 47.4537 701.148 45.8565Z" fill="white"/>
<path d="M712.181 71.4501C714.451 67.3901 717.611 64.2101 721.671 61.9101C725.731 59.6101 730.351 58.4601 735.531 58.4601C739.111 58.4601 742.421 59.2001 745.461 60.6701C748.501 62.1401 750.491 63.9001 751.451 65.9401V58.9401H765.361V111.5H751.451V104.4C750.491 106.45 748.491 108.21 745.461 109.67C742.421 111.14 739.111 111.88 735.531 111.88C730.351 111.88 725.731 110.73 721.671 108.43C717.611 106.13 714.441 102.93 712.181 98.8401C709.911 94.7501 708.741 90.1801 708.681 85.1301C708.741 80.0801 709.911 75.5201 712.181 71.4601V71.4501ZM747.231 74.5101C744.611 71.8601 741.251 70.5301 737.161 70.5301C733.071 70.5301 729.581 71.8901 726.901 74.6101C724.211 77.3301 722.841 80.8601 722.781 85.2101C722.841 89.5601 724.221 93.0701 726.901 95.7601C729.581 98.4501 733.001 99.7901 737.161 99.7901C741.321 99.7901 744.611 98.4601 747.231 95.8101C749.851 93.1601 751.191 89.6201 751.261 85.2101C751.201 80.7401 749.851 77.1701 747.231 74.5201V74.5101Z" fill="white"/>
<path d="M770.15 41.3801H784.25V111.58H770.15V41.3801Z" fill="white"/>
</svg>
